<svg xmlns="http://www.w3.org/2000/svg" viewBox="0 0 100.00115 100.27345"><title>Profile 2</title><path d="M99.10679,50.13526A49.81348,49.81348,0,0,1,82.6753,87.20843c-.07217.06537-.14417.13079-.21634.18893a50.11882,50.11882,0,0,1-4.67208,3.69858,48.73393,48.73393,0,0,1-17.41212,7.65153c-.90126.20344-1.8099.37783-2.73263.52316a49.37909,49.37909,0,0,1-16.40279-.09446c-.92291-.15984-1.83859-.34878-2.73985-.55949a48.93588,48.93588,0,0,1-17.20318-7.77505q-1.9465-1.38427-3.75639-2.95016c-.07922-.06541-.15139-.13079-.23077-.1962A49.85653,49.85653,0,0,1,49.71815.36044,49.58421,49.58421,0,0,1,99.10679,50.13526Z" fill="#fff1d1"/><path d="M74.92065,80.32814c0,2.61747-1.35782,5.06044-3.718,7.13607-3.91849,3.46246-10.60747,5.89629-18.38994,6.4106h-.00913c-.56488.03672-1.12087.06424-1.69488.08263-.42828.00919-.86579.01839-1.30319.01839h-.13672c-.41,0-.811-.0092-1.212-.01839-8.80312-.2388-16.40328-2.92976-20.5497-6.85137a9.38733,9.38733,0,0,1-3.32625-6.77793c0-7.54024,11.27281-13.64775,25.17-13.64775S74.92065,72.7879,74.92065,80.32814Z" fill="#ff74db"/><path d="M77.78688,91.09594a49.08638,49.08638,0,0,1-56.49057-.25431l3.04261-1.58407L24.375,89.243l.27407-.15261c.40363-.21071.80022-.42869,1.1968-.66122a3.54128,3.54128,0,0,0,.3172-.18166c.06495-.03632.12252-.07269.18747-.11629.21633-.13079.43267-.26885.649-.40691.08642-.0581.173-.11625.26668-.17439.31719-.20344.62013-.41419.9229-.63945.2019-.13806.4038-.29062.59127-.436a.99921.99921,0,0,0,.18025-.13806c.07921-.05088.15138-.109.23781-.17439.339-.26158.66344-.5232.98786-.81383.21633-.18166.41824-.36332.62735-.545.29555-.25435.5911-.53048.87943-.82838l.10826-.109a11.25483,11.25483,0,0,0,.82186-.84288c.31016-.31245.59127-.6249.87239-.95917a29.06058,29.06058,0,0,0,3.15808-4.43976,27.8159,27.8159,0,0,0,2.0477-4.2581c.35329-.89379.656-1.82387.92273-2.76126a28.08343,28.08343,0,0,0,.73544-3.3062l.99507-6.08925.18025-1.11173.19469-1.1917H56.85618l.37493,2.30343,1.00212,6.08925a29.76075,29.76075,0,0,0,.72821,3.31347A29.93547,29.93547,0,0,0,65.09,82.06381a29.46869,29.46869,0,0,0,4.29732,4.091c.18025.14533.36754.29067.555.41419a7.16434,7.16434,0,0,0,.62014.45778c.20912.15257.41824.2979.6344.44324.15138.10174.30294.20348.46154.2979.56962.37787,1.16071.71941,1.7592,1.03914.173.10169.34607.18889.52632.28335l.25964.13807.54075.2834Z" fill="#b598ff"/><path d="M77.78688,91.09594a49.08638,49.08638,0,0,1-56.49057-.25431l3.04261-1.58407L24.375,89.243l.27407-.15261c.40363-.21071.80022-.42869,1.1968-.66122a3.54128,3.54128,0,0,0,.3172-.18166c.06495-.03632.12252-.07269.18747-.11629.21633-.13079.43267-.26885.649-.40691.08642-.0581.173-.11625.26668-.17439.21633-.14534.42545-.29063.63457-.44324.10086-.06542.19468-.13079.28833-.19621.2019-.13806.4038-.29062.59127-.436a.99921.99921,0,0,0,.18025-.13806c.2019-.14534.39659-.31245.59127-.47234.21616-.16711.42528-.3415.6344-.51588.21633-.18166.41824-.36332.62735-.545.29555-.26886.5911-.545.87943-.82838l.10826-.109c.27407-.27612.55518-.55948.82186-.84288.29572-.31245.57684-.6249.85091-.94462a.056.056,0,0,1,.01443-.02182l.007.00727c.02886.02182.03608.03632.065.05814,3.778,3.73494,10.02907,5.38438,15.73953,5.38438,5.75358,0,12.02626-1.64944,15.78987-5.44252l.01444-.00727a29.55888,29.55888,0,0,0,3.63387,3.55328c.39659.33427.79318.654,1.204.95917.2019.15256.411.30517.62014.45778s.41824.2979.6344.44324c.15138.10174.30294.20348.46154.2979s.3172.19621.4758.29068c.26685.16711.54075.327.81482.47956.1586.09447.31.18166.46858.2689.173.10169.34607.18889.52632.28335l.25964.13807.54075.2834Z" fill="#ff74db"/><path d="M46.56132,93.86562c-1.04812.07343-2.10514.11021-3.18953.11021-7.60026,0-14.40759-1.82765-19.02791-4.72069l.03649-.01838.27343-.14693a27.28009,27.28009,0,0,0,3.25327-1.98376C31.74368,90.743,38.56926,93.32373,46.56132,93.86562Z" fill="#d4299e"/><path d="M41.23934,90.54368v8.63249c-.92291-.15984-1.83859-.34878-2.73985-.55949v-6.2709l.13695-.07269A14.50572,14.50572,0,0,0,41.23934,90.54368Z" fill="#3f4758"/><path d="M57.63766,35.15962c.65605,2.82979,1.25489,5.92905,1.72981,9.27415.486,3.42271.77574,6.63591.931,9.59542C62.8783,38.27663,63.01842,34.3406,62.52185,34.17c-.04858-.01668-.9956-.304-.9956-.304h0Z" fill="#ffc63d"/><path d="M56.2312,70.23149a12.93277,12.93277,0,0,1-17.52414,3.13178,28.87852,28.87852,0,0,0,.92041-2.76444,28.47189,28.47189,0,0,0,.73815-3.30629l.99327-6.08912.18227-1.11131H54.36307l1.08444,6.56672A31.56083,31.56083,0,0,0,56.2312,70.23149Z" fill="#7e51ed"/><rect x="38.36452" y="26.81917" width="21.87103" height="45.92094" rx="10.93551" ry="10.93551" fill="#b598ff"/><ellipse cx="54.2552" cy="49.84393" rx="1.19607" ry="1.20542"/><ellipse cx="44.34489" cy="49.84393" rx="1.19607" ry="1.20542"/><path d="M74.74755,89.51233c-4.60207,2.74606-11.24543,4.4635-18.61765,4.4635-1.0845,0-2.14163-.03678-3.18953-.11021,7.72775-.5235,14.362-2.95734,18.26224-6.40141a30.41689,30.41689,0,0,0,2.743,1.62562l.2642.13779Z" fill="#d4299e"/><path d="M98.97618,50.13673A49.85035,49.85035,0,0,1,82.5718,87.2099c-.072.06537-.144.13078-.216.18893a50.06476,50.06476,0,0,1-4.66434,3.69857,48.6149,48.6149,0,0,1-17.38343,7.65154c-.89985.20343-1.80691.37782-2.72805.52316a49.21857,49.21857,0,0,1-16.37586-.09447c-.92132-.15984-1.83543-.34877-2.73527-.55948A48.81841,48.81841,0,0,1,21.294,90.84309q-1.94305-1.38426-3.75-2.95015c-.07921-.06542-.15121-.13079-.23042-.19621a49.85867,49.85867,0,0,1-16.95164-37.56C.36191,22.64793,22.43872.36191,49.669.36191,76.89954.36191,98.97618,22.64793,98.97618,50.13673Z" fill="none" stroke="#ffa040" stroke-miterlimit="10" stroke-width="0.72382"/><path d="M60.37476,90.54368v8.20379c-.90126.20344-1.8099.37783-2.73263.52316V92.34578l.13695-.07269A14.70853,14.70853,0,0,0,60.37476,90.54368Z" fill="#3f4758"/><path d="M71.20261,87.46421c-3.91849,3.46246-10.60747,5.89629-18.38994,6.4106h-.00913c-.56488.03672-1.12087.06424-1.69488.08263-.42828.00919-.86579.01839-1.30319.01839h-.13672c-.41,0-.811-.0092-1.212-.01839-8.80312-.2388-16.40328-2.92976-20.5497-6.85137a23.539,23.539,0,0,0,1.94105-1.47869,28.94135,28.94135,0,0,0,3.62693-3.55428.42211.42211,0,0,0,.09122.04591c3.77266,3.738,10.02423,5.382,15.738,5.382,5.7502,0,12.03815-1.644,15.80168-5.44622a29.66436,29.66436,0,0,0,3.63605,3.55428A28.83763,28.83763,0,0,0,71.20261,87.46421Z" fill="#ff74db"/><path d="M58.60166,21.50769c-.89628-2.46705.22254-4.47-.69635-5.40992-1.02514-1.04859-2.672,1.18439-6.82594,3.06151-3.2847,1.48433-3.77092.77324-6.63673,2.23081a20.15241,20.15241,0,0,0-6.03507,4.70428c-6.42116,7.98787-.44542,30.91007.01122,30.81307.22662-.04812-.876-5.77285.54283-13.98543.98009-5.67265,2.26313-7.32276,2.7536-7.88949A7.6464,7.6464,0,0,1,49.201,32.798c2.75326.60653,2.89828,2.18239,6.55734,3.489,2.51032.89641,4.34792,1.55261,6.093.31366,2.43382-1.72787,3.88075-6.56912,2.84336-9.40857C63.5322,24.00983,59.935,25.17786,58.60166,21.50769Z" fill="#ffc63d"/><path d="M58.38336,55.63263h0a4.25815,4.25815,0,0,1-2.77712,0h0a8.83172,8.83172,0,0,1-4.48668-3.62683l-.23492-.36149c-1.0257-1.57832-.39276-3.89747,1.21361-4.44678l.00121-.00041a17.671,17.671,0,0,1,9.8877-.479h0a1.04906,1.04906,0,0,1,.66092,1.27987l-.77687,3.40954A5.65951,5.65951,0,0,1,58.38336,55.63263Z" fill="#214bc5" opacity="0.36"/><path d="M57.24873,56.7831a5.18893,5.18893,0,0,1-1.68138-.28212,9.68163,9.68163,0,0,1-4.95528-3.99271l-.23461-.36273a4.18024,4.18024,0,0,1-.41945-3.6049,3.45446,3.45446,0,0,1,2.10172-2.2122A18.66737,18.66737,0,0,1,62.452,45.826a1.95066,1.95066,0,0,1,1.33746,2.377l-.7767,3.40965a6.60974,6.60974,0,0,1-4.0826,4.88834A5.185,5.185,0,0,1,57.24873,56.7831Zm.91445-9.63785a17.04453,17.04453,0,0,0-5.51692.9207,1.64219,1.64219,0,0,0-.96688,1.073,2.35094,2.35094,0,0,0,.22128,2.00262l.23461.36273A7.87369,7.87369,0,0,0,56.153,54.76346a3.34218,3.34218,0,0,0,2.19148,0h.00089a4.77655,4.77655,0,0,0,2.89354-3.561l.77671-3.40965a.25274.25274,0,0,0-.03288-.2051A16.64353,16.64353,0,0,0,58.16318,47.14525Z" fill="#fff"/><path d="M39.95874,55.63165h0a4.25815,4.25815,0,0,0,2.77712,0h0a8.83166,8.83166,0,0,0,4.48667-3.62683l.23492-.36148c1.02571-1.57832.39277-3.89747-1.2136-4.44679l-.00121-.00041a17.67115,17.67115,0,0,0-9.8877-.479h0A1.04906,1.04906,0,0,0,35.694,47.997l.77687,3.40955A5.65949,5.65949,0,0,0,39.95874,55.63165Z" fill="#214bc5" opacity="0.36"/><path d="M41.352,56.7831a5.18506,5.18506,0,0,1-1.68139-.28212h0a6.60973,6.60973,0,0,1-4.08259-4.88834L34.81135,48.203a1.94823,1.94823,0,0,1,1.33747-2.377,18.64518,18.64518,0,0,1,10.39044.50245,3.451,3.451,0,0,1,2.10261,2.21309,4.17816,4.17816,0,0,1-.41857,3.60491l-.23461.36093A9.6773,9.6773,0,0,1,43.03253,56.501,5.18367,5.18367,0,0,1,41.352,56.7831Zm-4.77932-9.173c.02577,0-.01067.07971.01244.18181l.7767,3.41055a4.77656,4.77656,0,0,0,2.89355,3.561h.00088a3.32809,3.32809,0,0,0,2.1906,0,7.86949,7.86949,0,0,0,4.01861-3.26008l.23461-.36094a2.35334,2.35334,0,0,0,.22128-2.00352,1.64322,1.64322,0,0,0-.966-1.073,16.84323,16.84323,0,0,0-9.38534-.45587Z" fill="#fff"/><path d="M73.53817,24.03592c0,7.25535-5.34316,13.137-11.934,13.137-6.591,0-11.934-5.88162-11.934-13.137a13.11437,13.11437,0,0,1,.84932-4.87666c1.685-4.40965,5.98712-8.29383,11.08467-8.2603C67.66784,10.93881,73.53817,16.51332,73.53817,24.03592Z" fill="#ffc63d"/><path d="M50.81623,28.39576a13.11413,13.11413,0,0,1,.84933-4.8767c1.68492-4.40964,5.98717-8.29382,11.0847-8.26029a12.26941,12.26941,0,0,1,10.72543,7.49312c-.62207-6.86361-6.15879-11.81539-11.87153-11.853-5.09754-.03353-9.39961,3.85065-11.08471,8.2603a13.11234,13.11234,0,0,0-.84914,4.8767,14.15351,14.15351,0,0,0,1.213,5.7426C50.84017,29.32393,50.81623,28.863,50.81623,28.39576Z" fill="#ffa040"/><path d="M49.79976,3.97653c25.19409,0,45.69116,20.70666,45.69116,46.15869A46.4481,46.4481,0,0,1,80.26387,84.5383L80.216,84.583l-.073.05884-.06983.0625a46.51763,46.51763,0,0,1-4.32446,3.42883,44.83157,44.83157,0,0,1-16.10742,7.08728q-1.23706.27961-2.5144.48145a45.59458,45.59458,0,0,1-15.17408-.08862c-.81714-.14173-1.668-.3158-2.529-.51746a45.00923,45.00923,0,0,1-15.90112-7.19946c-1.2229-.8711-2.3916-1.79041-3.47388-2.73242l-.03491-.03016-.03443-.02856-.05346-.0459c-.04248-.03674-.08521-.07336-.12866-.11011A46.36775,46.36775,0,0,1,4.1086,50.13522c0-25.452,20.49707-46.15869,45.69116-46.15869m0-3.61609C22.56929.36044.49263,22.64645.49263,50.13522A49.85931,49.85931,0,0,0,17.444,87.69528c.07935.06543.15137.13074.23047.19616q1.80323,1.56959,3.75025,2.9502a48.816,48.816,0,0,0,17.1748,7.775c.89966.2107,1.814.39966,2.73535.55945a49.21151,49.21151,0,0,0,16.37574.09449c.92114-.14527,1.82837-.31971,2.728-.52308A48.61338,48.61338,0,0,0,77.822,91.09591a50.02831,50.02831,0,0,0,4.66455-3.69861c.072-.0581.1438-.12353.21583-.18884A49.8498,49.8498,0,0,0,99.10689,50.13522c0-27.48877-22.07666-49.77478-49.30713-49.77478Z" fill="#ffc63d"/><path d="M45.99723,62.40434h6.60561a0,0,0,0,1,0,0v.42827A3.3028,3.3028,0,0,1,49.3,66.13541h0a3.3028,3.3028,0,0,1-3.3028-3.3028v-.42827A0,0,0,0,1,45.99723,62.40434Z" fill="#fff"/><path d="M.00119.136v100h100V.136ZM80.89743,84.62447c-.06736.06081-.13507.12166-.20279.17575-.59483.52725-1.2032,1.041-1.83189,1.53439v.00677a46.309,46.309,0,0,1-57.49613.18929V86.5239c-.5207-.41231-1.03427-.83144-1.53465-1.264-.07449-.06085-.14185-.12166-.21634-.18252a46.30244,46.30244,0,1,1,61.2818-.45289Z" fill="#ffc63d"/></svg>