<svg xmlns="http://www.w3.org/2000/svg" viewBox="0 0 500 500"><g id="freepik--background-simple--inject-15"><path d="M104.56,101.62c27.91-59.44,127.05-51.06,165.31-9.25s50.7,68.6,85.21,53,78.52-11.44,81,38.17S398.21,291.78,334,309.13s-64.16,78.76-149.1,66.37c-46.31-6.76-47.36-56.86-40.82-98.3S72.18,170.57,104.56,101.62Z" style="fill:#407BFF"></path><path d="M104.56,101.62c27.91-59.44,127.05-51.06,165.31-9.25s50.7,68.6,85.21,53,78.52-11.44,81,38.17S398.21,291.78,334,309.13s-64.16,78.76-149.1,66.37c-46.31-6.76-47.36-56.86-40.82-98.3S72.18,170.57,104.56,101.62Z" style="fill:#fff;opacity:0.9"></path></g><g id="freepik--Shadow--inject-15"><ellipse id="freepik--path--inject-15" cx="250" cy="416.24" rx="193.89" ry="11.32" style="fill:#f5f5f5"></ellipse></g><g id="freepik--Floor--inject-15"><path d="M74.2,383.85S69.5,368.12,79,365s15.14-10.49,14.82-18.81,9.68-16.42,17.18-8.62,6.5-6,16.5-9.35S146,333,143.24,340.42s7.13,12.07,18.94,5.75,24.82,5.18,22.32,14.18-.45,10,7,7,20.85,5.5,16.17,16.5S74.2,383.85,74.2,383.85Z" style="fill:#407BFF"></path><path d="M74.2,383.85S69.5,368.12,79,365s15.14-10.49,14.82-18.81,9.68-16.42,17.18-8.62,6.5-6,16.5-9.35S146,333,143.24,340.42s7.13,12.07,18.94,5.75,24.82,5.18,22.32,14.18-.45,10,7,7,20.85,5.5,16.17,16.5S74.2,383.85,74.2,383.85Z" style="fill:#fff;opacity:0.30000000000000004;isolation:isolate"></path><path d="M325.5,385.35c-5-5-.5-13.5,4.5-14.5s10-9.8,10.26-15.4,9.24-22.83,23.24-12.19,9.74,1.57,19.87-1.42,16.52,5.61,12.07,12.06c0,0,10.18-2.55,14.37,7s0,15.4,0,15.4,19.13-.57,17.41,11.27S325.5,385.35,325.5,385.35Z" style="fill:#407BFF"></path><path d="M325.5,385.35c-5-5-.5-13.5,4.5-14.5s10-9.8,10.26-15.4,9.24-22.83,23.24-12.19,9.74,1.57,19.87-1.42,16.52,5.61,12.07,12.06c0,0,10.18-2.55,14.37,7s0,15.4,0,15.4,19.13-.57,17.41,11.27S325.5,385.35,325.5,385.35Z" style="fill:#fff;opacity:0.30000000000000004;isolation:isolate"></path><path d="M57,385.65v13.7H443v-13.7a4.08,4.08,0,0,0-4-4.3H61A4.08,4.08,0,0,0,57,385.65Z" style="fill:#263238"></path><rect x="397" y="381.35" width="24" height="18" style="fill:#407BFF"></rect><rect x="352" y="381.35" width="23" height="18" style="fill:#407BFF"></rect><rect x="306" y="381.35" width="24" height="18" style="fill:#407BFF"></rect><rect x="261" y="381.35" width="23" height="18" style="fill:#407BFF"></rect><rect x="216" y="381.35" width="23" height="18" style="fill:#407BFF"></rect><rect x="170" y="381.35" width="24" height="18" style="fill:#407BFF"></rect><rect x="125" y="381.35" width="23" height="18" style="fill:#407BFF"></rect><rect x="79" y="381.35" width="24" height="18" style="fill:#407BFF"></rect><g style="opacity:0.6000000000000001;isolation:isolate"><rect x="397" y="381.35" width="24" height="18" style="fill:#fff"></rect><rect x="352" y="381.35" width="23" height="18" style="fill:#fff"></rect><rect x="306" y="381.35" width="24" height="18" style="fill:#fff"></rect><rect x="261" y="381.35" width="23" height="18" style="fill:#fff"></rect><rect x="216" y="381.35" width="23" height="18" style="fill:#fff"></rect><rect x="170" y="381.35" width="24" height="18" style="fill:#fff"></rect><rect x="125" y="381.35" width="23" height="18" style="fill:#fff"></rect><rect x="79" y="381.35" width="24" height="18" style="fill:#fff"></rect></g><path d="M57,385.65v13.7H443v-13.7a4.08,4.08,0,0,0-4-4.3H61A4.08,4.08,0,0,0,57,385.65Z" style="fill:#fff;opacity:0.1;isolation:isolate"></path></g><g id="freepik--Screen--inject-15"><path d="M251.9,115V411.51a4.33,4.33,0,0,1-4.39,4.34h-138a3.84,3.84,0,0,1-2.76-1.11,4,4,0,0,1-1.17-2.87V114.68a3.5,3.5,0,0,1,3.37-3.63h39.18a2.76,2.76,0,0,1,2.52,1.76l1.63,4a2.75,2.75,0,0,0,2.52,1.75h48a2.73,2.73,0,0,0,2.52-1.71l1.63-4a2.76,2.76,0,0,1,2.52-1.77h38.62A4,4,0,0,1,251.9,115Z" style="fill:#407BFF"></path><rect x="105.6" y="130.37" width="146.3" height="272.35" style="fill:#fff;opacity:0.30000000000000004;isolation:isolate"></rect><rect x="109.71" y="162.55" width="138.08" height="125.91" style="fill:#fff;opacity:0.5;isolation:isolate"></rect><path d="M240.12,153.24H117.38a7.09,7.09,0,0,1-7.09-7.08h0a7.09,7.09,0,0,1,7.09-7.09H240.12a7.09,7.09,0,0,1,7.09,7.09h0A7.09,7.09,0,0,1,240.12,153.24Z" style="fill:#fff"></path><rect x="109.71" y="295.26" width="138.08" height="100.1" rx="5.72" style="fill:#fff;opacity:0.5;isolation:isolate"></rect><path d="M247.79,301v9.81H109.71V301a5.72,5.72,0,0,1,5.72-5.72H242.07A5.72,5.72,0,0,1,247.79,301Z" style="fill:#407BFF"></path><rect x="117.17" y="342.34" width="36.92" height="45.63" rx="3.03" style="fill:#407BFF"></rect><rect x="160.29" y="342.34" width="36.92" height="45.63" rx="3.03" style="fill:#407BFF"></rect><rect x="203.41" y="342.34" width="36.92" height="45.63" rx="3.03" style="fill:#407BFF"></rect><g style="opacity:0.7000000000000001"><polygon points="144.29 381.91 126.97 381.91 128.97 368.86 128.97 365.5 142.29 365.5 142.29 368.86 144.29 381.91" style="fill:#fff"></polygon><path d="M138.43,364.61a.5.5,0,0,1-.5-.5v-2.36a2.58,2.58,0,0,0-5.16,0v2.36a.5.5,0,0,1-.5.5.5.5,0,0,1-.5-.5v-2.36a3.58,3.58,0,0,1,7.16,0v2.36A.5.5,0,0,1,138.43,364.61Z" style="fill:#fff"></path></g><g style="opacity:0.7000000000000001"><polygon points="123.04 345.31 123.76 346.76 125.36 346.99 124.2 348.12 124.47 349.71 123.04 348.96 121.61 349.71 121.89 348.12 120.73 346.99 122.33 346.76 123.04 345.31" style="fill:#fff"></polygon><polygon points="129.34 345.31 130.05 346.76 131.65 346.99 130.49 348.12 130.77 349.71 129.34 348.96 127.91 349.71 128.18 348.12 127.02 346.99 128.62 346.76 129.34 345.31" style="fill:#fff"></polygon><polygon points="135.63 345.31 136.34 346.76 137.94 346.99 136.79 348.12 137.06 349.71 135.63 348.96 134.2 349.71 134.47 348.12 133.32 346.99 134.91 346.76 135.63 345.31" style="fill:#fff"></polygon><polygon points="141.92 345.31 142.64 346.76 144.24 346.99 143.08 348.12 143.35 349.71 141.92 348.96 140.49 349.71 140.77 348.12 139.61 346.99 141.21 346.76 141.92 345.31" style="opacity:0.5"></polygon><polygon points="148.22 345.31 148.93 346.76 150.53 346.99 149.37 348.12 149.65 349.71 148.22 348.96 146.79 349.71 147.06 348.12 145.9 346.99 147.5 346.76 148.22 345.31" style="opacity:0.5"></polygon></g><g style="opacity:0.7000000000000001"><polygon points="209.28 345.99 210 347.44 211.6 347.68 210.44 348.8 210.72 350.39 209.28 349.64 207.85 350.39 208.13 348.8 206.97 347.68 208.57 347.44 209.28 345.99" style="fill:#fff"></polygon><polygon points="215.58 345.99 216.29 347.44 217.89 347.68 216.74 348.8 217.01 350.39 215.58 349.64 214.15 350.39 214.42 348.8 213.26 347.68 214.86 347.44 215.58 345.99" style="fill:#fff"></polygon><polygon points="221.87 345.99 222.59 347.44 224.19 347.68 223.03 348.8 223.3 350.39 221.87 349.64 220.44 350.39 220.72 348.8 219.56 347.68 221.16 347.44 221.87 345.99" style="fill:#fff"></polygon><polygon points="228.16 345.99 228.88 347.44 230.48 347.68 229.32 348.8 229.59 350.39 228.16 349.64 226.74 350.39 227.01 348.8 225.85 347.68 227.45 347.44 228.16 345.99" style="fill:#fff"></polygon><polygon points="234.46 345.99 235.17 347.44 236.77 347.68 235.62 348.8 235.89 350.39 234.46 349.64 233.03 350.39 233.3 348.8 232.14 347.68 233.74 347.44 234.46 345.99" style="opacity:0.5"></polygon></g><g style="opacity:0.7000000000000001"><polygon points="165.72 345.99 166.44 347.44 168.04 347.68 166.88 348.8 167.15 350.39 165.72 349.64 164.29 350.39 164.57 348.8 163.41 347.68 165.01 347.44 165.72 345.99" style="fill:#fff"></polygon><polygon points="172.02 345.99 172.73 347.44 174.33 347.68 173.17 348.8 173.45 350.39 172.02 349.64 170.59 350.39 170.86 348.8 169.7 347.68 171.3 347.44 172.02 345.99" style="fill:#fff"></polygon><polygon points="178.31 345.99 179.02 347.44 180.62 347.68 179.47 348.8 179.74 350.39 178.31 349.64 176.88 350.39 177.15 348.8 176 347.68 177.59 347.44 178.31 345.99" style="fill:#fff"></polygon><polygon points="184.6 345.99 185.32 347.44 186.92 347.68 185.76 348.8 186.03 350.39 184.6 349.64 183.17 350.39 183.44 348.8 182.29 347.68 183.89 347.44 184.6 345.99" style="fill:#fff"></polygon><polygon points="190.9 345.99 191.61 347.44 193.21 347.68 192.05 348.8 192.32 350.39 190.9 349.64 189.47 350.39 189.74 348.8 188.58 347.68 190.18 347.44 190.9 345.99" style="fill:#fff"></polygon></g><polygon points="187.14 367.87 180.49 367.87 180.49 361.21 176.13 361.21 176.13 367.87 169.47 367.87 169.47 372.22 176.13 372.22 176.13 378.88 180.49 378.88 180.49 372.22 187.14 372.22 187.14 367.87" style="fill:#fff;opacity:0.7000000000000001"></polygon><path d="M215.58,361.14v17.8h11.94v-17.8Zm10.27,8.05h-8.6v-5.81h8.6Z" style="fill:#fff;opacity:0.7000000000000001"></path><path d="M230.84,365.64v-1.58a.35.35,0,0,0-.11-.27l-1-1.05-.53.53.94.94v1.43h-.49V370H230v5.21a1.5,1.5,0,0,1-1.5,1.5v1a2.5,2.5,0,0,0,2.5-2.5V370h.37v-4.4Z" style="fill:#fff;opacity:0.7000000000000001"></path><rect x="117.17" y="319.53" width="123.16" height="15.56" rx="3.3" style="fill:#fff"></rect><path d="M127.08,323.9a3.73,3.73,0,1,0-5.28,5.27l2.64,2.64,2.64-2.64A3.74,3.74,0,0,0,127.08,323.9ZM124.44,328a1.48,1.48,0,1,1,1.47-1.47A1.47,1.47,0,0,1,124.44,328Z" style="fill:#407BFF"></path><path d="M233.78,330.62a.5.5,0,0,1-.35-.85l2.46-2.46-2.46-2.46a.5.5,0,0,1,0-.71.51.51,0,0,1,.71,0L237,327a.51.51,0,0,1,0,.71l-2.81,2.81A.51.51,0,0,1,233.78,330.62Z" style="fill:#407BFF"></path><rect x="123.79" y="120.27" width="2.04" height="2.72" transform="translate(249.62 243.26) rotate(180)" style="fill:#fff;opacity:0.6000000000000001;isolation:isolate"></rect><rect x="120.47" y="119.37" width="2.04" height="3.62" transform="translate(242.97 242.36) rotate(180)" style="fill:#fff;opacity:0.6000000000000001;isolation:isolate"></rect><rect x="117.14" y="118.46" width="2.04" height="4.53" transform="translate(236.33 241.45) rotate(180)" style="fill:#fff;opacity:0.6000000000000001;isolation:isolate"></rect><rect x="113.82" y="117.55" width="2.04" height="5.44" transform="translate(229.68 240.54) rotate(180)" style="fill:#fff;opacity:0.6000000000000001;isolation:isolate"></rect><rect x="232.01" y="119.28" width="1.21" height="2.72" style="fill:#fff;opacity:0.6000000000000001;isolation:isolate"></rect><rect x="234.05" y="118.29" width="9.63" height="4.7" transform="translate(477.73 241.28) rotate(180)" style="fill:#fff;opacity:0.6000000000000001;isolation:isolate"></rect><g style="opacity:0.5;isolation:isolate"><path d="M247.79,238.36V198.14l-.53.13-9-35.72H220l-24.79,6.26-1.58-6.26H187.8l12,47.69-25.63,6.47L171,204l11.41-2.88a2.12,2.12,0,0,0,1.54-2.58l-8.48-33.62,9.23-2.33H170.47l8.81,34.92-9.34,2.36-9.41-37.28h-9.59l6.34,25.12-9,2.27-34-27.39h-4.61v1.74l18.34,14.79-18.34,19v6.14l21.67-22.5,15.07,12.16a2.11,2.11,0,0,0,1.86.4l10-2.52L165.18,219l-52,13.13-3.46-13.71v24.18l1.61-.41L114,252.8l-4.29,1.08v4.39l5.33-1.34,3.2,12.68-8.53,14.29v4.56h2.23l2-3.43.87,3.43h4.39l-2.17-8.6,5.27-8.83a2.11,2.11,0,0,0,.23-1.61l-7.14-28.28L143,234.19l11.64,46.13-3.85,8.14h4.71l2.89-6.1,21.46-5.42,2.91,11.52h9.59l-7.88-31.22,25.63-6.47,9.52,37.69h5.85l-9.86-39.08,13.64-3.44,10.91,6.51,7.67,30.39V265.42l-3.23-12.8,3.23-.82v-4.39l-5.48,1.39-10.91-6.52-7.22-28.59,16.34-4.12ZM158.4,278l-11.31-44.81L167.46,228l11.31,44.8Zm25-24.85-6.91-27.38,25.63-6.47L209,246.64Zm43.57-11-12.43,3.13-6.91-27.38,12.43-3.14Zm-21.62-33.27-9.07-35.91,32.91-8.31,9.07,35.92Z" style="fill:#fff"></path></g><path d="M239.4,207.09a3.73,3.73,0,0,0-5.28,5.27l2.64,2.64,2.64-2.64A3.74,3.74,0,0,0,239.4,207.09Zm-2.64,4.11a1.48,1.48,0,1,1,1.47-1.48A1.48,1.48,0,0,1,236.76,211.2Z" style="fill:#407BFF"></path><path d="M228.68,171.09a3.73,3.73,0,0,0-5.27,5.27L226,179l2.64-2.64A3.72,3.72,0,0,0,228.68,171.09ZM226,175.2a1.48,1.48,0,1,1,1.48-1.48A1.47,1.47,0,0,1,226,175.2Z" style="fill:#407BFF"></path><path d="M202.64,220.13a3.73,3.73,0,1,0-5.28,5.27L200,228l2.64-2.64A3.72,3.72,0,0,0,202.64,220.13ZM200,224.24a1.48,1.48,0,1,1,1.47-1.48A1.47,1.47,0,0,1,200,224.24Z" style="fill:#407BFF"></path><path d="M177.68,274.55a3.73,3.73,0,0,0-5.28,5.28l2.64,2.63,2.64-2.63A3.75,3.75,0,0,0,177.68,274.55ZM175,278.66a1.48,1.48,0,1,1,1.47-1.47A1.47,1.47,0,0,1,175,278.66Z" style="fill:#407BFF"></path><path d="M135,166.58a3.73,3.73,0,0,0-5.28,5.28l2.64,2.64,2.64-2.64A3.75,3.75,0,0,0,135,166.58Zm-2.64,4.11a1.47,1.47,0,1,1,1.47-1.47A1.47,1.47,0,0,1,132.37,170.69Z" style="fill:#407BFF"></path><path d="M121.42,236.57a3.73,3.73,0,1,0-5.28,5.27l2.64,2.64,2.64-2.64A3.72,3.72,0,0,0,121.42,236.57Zm-2.64,4.11a1.48,1.48,0,1,1,1.47-1.48A1.47,1.47,0,0,1,118.78,240.68Z" style="fill:#407BFF"></path><path d="M176.47,190.23H144.1a3.28,3.28,0,0,0-3.28,3.29v35.95a3.28,3.28,0,0,0,3.28,3.29H158l2.25,6.76,2.25-6.76h13.93a3.29,3.29,0,0,0,3.29-3.29V193.52A3.29,3.29,0,0,0,176.47,190.23Z" style="fill:#407BFF"></path><g style="opacity:0.7000000000000001"><polygon points="147.7 194.89 148.42 196.34 150.02 196.57 148.86 197.69 149.13 199.29 147.7 198.54 146.27 199.29 146.55 197.69 145.39 196.57 146.99 196.34 147.7 194.89" style="fill:#fff"></polygon><polygon points="154 194.89 154.71 196.34 156.31 196.57 155.15 197.69 155.43 199.29 154 198.54 152.57 199.29 152.84 197.69 151.68 196.57 153.28 196.34 154 194.89" style="fill:#fff"></polygon><polygon points="160.29 194.89 161 196.34 162.6 196.57 161.45 197.69 161.72 199.29 160.29 198.54 158.86 199.29 159.13 197.69 157.98 196.57 159.57 196.34 160.29 194.89" style="fill:#fff"></polygon><polygon points="166.58 194.89 167.3 196.34 168.9 196.57 167.74 197.69 168.01 199.29 166.58 198.54 165.15 199.29 165.43 197.69 164.27 196.57 165.87 196.34 166.58 194.89" style="fill:#fff"></polygon><polygon points="172.88 194.89 173.59 196.34 175.19 196.57 174.03 197.69 174.31 199.29 172.88 198.54 171.45 199.29 171.72 197.69 170.56 196.57 172.16 196.34 172.88 194.89" style="opacity:0.5"></polygon></g><g style="opacity:0.7000000000000001"><circle cx="160.54" cy="216.6" r="7.87" transform="translate(-87.14 323.08) rotate(-76.72)" style="fill:#fff"></circle><path d="M160.54,222.23a5.63,5.63,0,1,1,5.64-5.63A5.64,5.64,0,0,1,160.54,222.23Zm0-10.85a5.22,5.22,0,1,0,5.22,5.22A5.22,5.22,0,0,0,160.54,211.38Z" style="fill:#407BFF"></path><path d="M169.56,206V226.6a.64.64,0,0,0,.64.63h0a.63.63,0,0,0,.63-.63v-7.87h1S172.34,208.84,169.56,206Z" style="fill:#fff"></path><path d="M152.65,210.56l-.07-.43-.15-.86c-.19-1.15-.37-2.3-.6-3.45-.05,1.17-.05,2.33-.05,3.5v.88c0,.27,0,.66,0,.69a.34.34,0,0,1-.25.16h-.39l-.41-5.24-.4,5.24h-.39a.32.32,0,0,1-.25-.16c-.07,0,0-.42,0-.69v-.88c0-1.17,0-2.33-.05-3.5-.23,1.15-.42,2.3-.61,3.45l-.14.86-.07.43a1.26,1.26,0,0,0,0,.61,1.25,1.25,0,0,0,1,.92h.32v14.64a.64.64,0,0,0,.63.64h0a.64.64,0,0,0,.64-.64V212.1h.31a1.25,1.25,0,0,0,1-.92A1.4,1.4,0,0,0,152.65,210.56Z" style="fill:#fff"></path></g><path d="M231.1,281a8.46,8.46,0,1,1,8.46-8.46A8.47,8.47,0,0,1,231.1,281Zm0-15.92a7.46,7.46,0,1,0,7.46,7.46A7.47,7.47,0,0,0,231.1,265Z" style="fill:#407BFF"></path><circle cx="231.1" cy="272.5" r="3.98" style="fill:#407BFF"></circle><path d="M231.1,265.05a.5.5,0,0,1-.5-.5v-3.1a.5.5,0,0,1,1,0v3.1A.5.5,0,0,1,231.1,265.05Z" style="fill:#407BFF"></path><path d="M231.1,284.05a.5.5,0,0,1-.5-.5v-3.1a.5.5,0,0,1,1,0v3.1A.5.5,0,0,1,231.1,284.05Z" style="fill:#407BFF"></path><path d="M242.15,273h-3.1a.5.5,0,0,1-.5-.5.51.51,0,0,1,.5-.5h3.1a.5.5,0,0,1,.5.5A.5.5,0,0,1,242.15,273Z" style="fill:#407BFF"></path><path d="M223.15,273h-3.1a.5.5,0,0,1-.5-.5.51.51,0,0,1,.5-.5h3.1a.5.5,0,0,1,.5.5A.5.5,0,0,1,223.15,273Z" style="fill:#407BFF"></path></g><g id="freepik--Character--inject-15"><path d="M351.74,179.55c6.08,1.89,9.87,29.74,11.78,35.19,1.43,4.09,15.22,29.75,15.22,29.75S391.41,248,390.23,250s-4.55,5.14-6.53,5.53S375.59,251,375,249.6a12.24,12.24,0,0,1-.59-3.79S359.69,223.62,357.84,219c-1.39-3.53-10.5-27.07-10.5-27.07s-1.79-2.79,0-7.11S351.74,179.55,351.74,179.55Z" style="fill:#e4897b"></path><path d="M312.17,181.59c-5.55.44-14.95,23.14-14.95,23.14l-7.12-1.86s-5,14.77,3.26,16.88,19.77-20.2,19.77-20.2Z" style="fill:#407BFF"></path><path d="M313.13,199.55a91.74,91.74,0,0,1-7.41,11.72c-3.8,5-8.45,9.48-12.36,8.48-8.25-2.11-3.26-16.88-3.26-16.88l7.12,1.86s9.4-22.7,14.95-23.14l.94,17.61Z" style="fill:#fff;opacity:0.6000000000000001;isolation:isolate"></path><path d="M313.13,199.55a91.74,91.74,0,0,1-7.41,11.72c-1.57-8.54,5.51-15.25,5.51-15.25l1.88,3.18Z" style="opacity:0.2;isolation:isolate"></path><path d="M315.56,139.07h7.64s3.24-5.27,9.12-2.89,11.82,4.94,13.21,8.7,0,9.65,0,9.65,5.56,4.73,6.92,10.26c1.09,4.42-3.36,6.49-3.36,6.49a3.24,3.24,0,0,0-.2-3.06s-1.19,2.72-5.34,4.23-17.54,3.73-24.5,0c-4.76-2.56-4.65-6.07-4.65-6.07-2,2.14-.42,4.9-.42,4.9s-4.73-3.16-2.34-12.64S307.81,142.85,315.56,139.07Z" style="fill:#263238"></path><path d="M335.35,277.14c1.32,3.49,2.53,7,3.62,10.5,5.56,17.58,8.41,38.47,8.41,38.47,14.86,30,25.29,75.17,25.29,75.17l-5.5,1.83L331,322.78l-10.72-27.63Z" style="fill:#e4897b"></path><path d="M372.9,397.08c-.34-.64-8.14,3.78-8.14,3.78s-2.5,7.44-6.77,10.91-.17,5.05,5.21,2.44l13.3-6.46C380.32,405.89,376.36,403.8,372.9,397.08Z" style="fill:#263238"></path><path d="M361.53,405a1.31,1.31,0,0,1-.81.15c-.21-.05-.5-.23-.61-.77a1,1,0,0,1,.17-.75,3.62,3.62,0,0,1,1.71-1.07c-.83,0-1.61-.18-1.84-.59s-.08-.58.2-.94a1.4,1.4,0,0,1,1-.53c1.31-.08,2.89,1.46,3,1.54a.22.22,0,0,1,0,.08h0a.24.24,0,0,1,0,.08h0a.17.17,0,0,1,0,.07h0a.36.36,0,0,1,0,.09A11.59,11.59,0,0,1,361.53,405Zm0-1.74a2.17,2.17,0,0,0-.86.64.53.53,0,0,0-.1.39c.08.35.22.39.26.4.53.13,1.79-1,2.74-2.11A10.86,10.86,0,0,0,361.53,403.24Zm-.48-2.2a1,1,0,0,0-.33.27c-.08.11-.22.3-.16.41.2.35,1.66.42,3.07.29a3.92,3.92,0,0,0-2.22-1.06A1.06,1.06,0,0,0,361.05,401Z" style="fill:#407BFF"></path><path d="M311.3,276.94a125.64,125.64,0,0,0,8.61,30.27c4.48,10.41,9.43,18.07,13,26,6.36,14,22.81,47.21,22.81,47.21l11-8.31S349.19,329.75,348,321.44c-.77-5.38-1.51-34.31-1.94-54-.23-10.75-.37-18.76-.37-18.76l-31.45-25.11A129.32,129.32,0,0,0,311.3,276.94Z" style="fill:#263238"></path><path d="M319.91,307.21c4.48,10.41,9.43,18.07,13,26,6.36,14,22.81,47.21,22.81,47.21l11-8.31S349.19,329.75,348,321.44c-.77-5.38-1.51-34.31-1.94-54l-9.31-19.55-12.07,4.85,3.94,15.16Z" style="opacity:0.2;isolation:isolate"></path><path d="M331.42,339.24c-8.3,31.57-23.87,69-23.87,69l-5.41-2.1L318,339.24Z" style="fill:#e4897b"></path><path d="M310.4,405.19c.16-.72-8.67-2.29-8.67-2.29S295.05,407,289.55,407s-3.35,3.78,2.46,5.2l14.36,3.52C310.5,416.71,308.78,412.56,310.4,405.19Z" style="fill:#263238"></path><path d="M296.61,404a1.29,1.29,0,0,1-.72-.4.87.87,0,0,1,0-1,1,1,0,0,1,.61-.47,3.69,3.69,0,0,1,2,.26c-.61-.55-1.12-1.16-1-1.62.06-.3.31-.5.76-.59a1.35,1.35,0,0,1,1.13.24c1.05.78,1.29,3,1.3,3.08a.38.38,0,0,1,0,.1h0l0,.07h0s0,0-.05.05h0l-.09,0A11.53,11.53,0,0,1,296.61,404Zm1.11-1.34a2.24,2.24,0,0,0-1.07-.06.5.5,0,0,0-.32.24c-.17.32-.09.44-.06.48.33.43,2,.35,3.45.12A10.81,10.81,0,0,0,297.72,402.67Zm1-2a1,1,0,0,0-.42,0c-.13,0-.36.09-.38.21-.07.4,1,1.38,2.17,2.18a3.87,3.87,0,0,0-1-2.23A1,1,0,0,0,298.75,400.67Z" style="fill:#407BFF"></path><path d="M347.5,220.17s12.19,25.71,7.88,50-17.32,55.41-20.83,63-16.62,52.28-16.62,52.28l-11.34-3.69s10.14-44.4,13.32-59.87c1.5-7.3,14.37-59.34,14.37-59.34s-22-16.39-20.49-42Z" style="fill:#263238"></path><polygon points="335.44 225.96 317.82 226.23 317.61 220.93 335.25 221.12 335.44 225.96"></polygon><polygon points="316.06 220.91 316.27 226.25 314.49 226.28 314 220.89 316.06 220.91"></polygon><polygon points="336.81 221.13 346.16 221.23 346.57 225.79 336.99 225.93 336.81 221.13"></polygon><rect x="321.73" y="221.31" width="6.86" height="5.2" transform="translate(650.45 447.62) rotate(179.96)" style="fill:#fff"></rect><path d="M351.74,179.55s-22.16-4.88-40.44,2.24a169.51,169.51,0,0,0,2.7,39.1l33.85.24s-1.83-9.21,5.69-27Z" style="fill:#407BFF"></path><path d="M327,184.77c7.79-1.92,9.78-5.57,9.78-5.57-3.58-2.67-3.51-7.23-3-10.12a17,17,0,0,1,.67-2.7l-9.3,2.87a26.22,26.22,0,0,1,.82,4,11.69,11.69,0,0,1,.07,3c-.32,2.92-1.93,3.14-1.93,3.14C322.76,182.63,327,184.77,327,184.77Z" style="fill:#e4897b"></path><path d="M325.94,173.21a11.69,11.69,0,0,1,.07,3c3.72-.93,6.24-4.27,7.74-7.1a17,17,0,0,1,.67-2.7l-9.3,2.87A26.22,26.22,0,0,1,325.94,173.21Z" style="opacity:0.2;isolation:isolate"></path><path d="M324.05,142.7c-8.24,1.25-10.22,6.07-9.53,14.64.86,10.72,4.36,17.89,14.31,14.06C342.34,166.2,337.72,140.62,324.05,142.7Z" style="fill:#e4897b"></path><path d="M319.77,156.07a17.46,17.46,0,0,1-1.87,3.78,2.28,2.28,0,0,0,2.31.6Z" style="fill:#de5753"></path><path d="M324.71,154.63c.09.68.52,1.18,1,1.13s.75-.66.66-1.34-.53-1.18-1-1.12S324.62,154,324.71,154.63Z" style="fill:#263238"></path><path d="M325.56,153.31l-1.55-.39S324.91,154.07,325.56,153.31Z" style="fill:#263238"></path><path d="M316.25,155.57c.09.68.53,1.19,1,1.13s.75-.66.66-1.34-.52-1.18-1-1.12S316.17,154.89,316.25,155.57Z" style="fill:#263238"></path><path d="M317.11,154.25l-1.55-.39S316.45,155,317.11,154.25Z" style="fill:#263238"></path><path d="M327.69,150a.36.36,0,0,1-.24-.09,4,4,0,0,0-3.42-.63.35.35,0,0,1-.44-.24.35.35,0,0,1,.24-.44,4.69,4.69,0,0,1,4.1.78.36.36,0,0,1,0,.5A.35.35,0,0,1,327.69,150Z" style="fill:#263238"></path><path d="M314.71,151a.35.35,0,0,1-.26-.12.36.36,0,0,1,0-.5,4.22,4.22,0,0,1,3.49-1.26.36.36,0,0,1,.28.42.35.35,0,0,1-.42.27h0a3.55,3.55,0,0,0-2.87,1.09A.33.33,0,0,1,314.71,151Z" style="fill:#263238"></path><path d="M335.15,155.21s-4.87-6.18-5.08-11.49c0,0-17.33-4.18-15.62,12.5,0,0-3.83-14.46,10.27-16.94s17.19,18.23,10.82,25.51C335.54,164.79,338.18,159.08,335.15,155.21Z" style="fill:#263238"></path><path d="M334.07,157.15a3.66,3.66,0,0,1,3.39-3.89c2.59-.11,4.61,4.94-1.55,7.17C335,160.75,334.38,159.94,334.07,157.15Z" style="fill:#e4897b"></path><path d="M332.32,137.53s-5-2.89-9-2.24-5,3.16-5,3.16a5.3,5.3,0,0,0-4.89,0c-2.77,1.32-5.8,6.66-5.4,13.48s6,7.62,6,7.62-4.16-11.24,5.07-14.85c0,0,3.33-2.16,5.62.48s2.05,10.6,9.75,7.74S337.26,140.59,332.32,137.53Z" style="fill:#263238"></path><path d="M321.4,164.29A.36.36,0,0,1,321,164a.36.36,0,0,1,.34-.37c2.14-.12,3.41-2.55,3.42-2.58a.36.36,0,0,1,.48-.15.35.35,0,0,1,.15.48c-.05.11-1.47,2.82-4,3Z" style="fill:#263238"></path><path d="M341.67,176.18s-6.21,12.1-16.89,17.52l22.15,36.65,6.83-3.69s-4.26-12.51-4.37-15.41,6.86-26.64,5.44-30.29S341.67,176.18,341.67,176.18Z" style="fill:#407BFF"></path><path d="M349.39,211.25c.11,2.9,4.37,15.41,4.37,15.41l-6.83,3.69L324.78,193.7c10.68-5.42,16.89-17.52,16.89-17.52s11.74,1.14,13.16,4.78c.73,1.87-.74,9-2.34,15.92-1.15,5-2.37,9.89-2.87,12.56A10.16,10.16,0,0,0,349.39,211.25Z" style="fill:#fff;opacity:0.6000000000000001;isolation:isolate"></path><path d="M319.41,178.84s.46,11.73,8.28,16.74l-13.29,35h-3.29l.53-13.07s-3.72-26.08-.34-35.76Z" style="fill:#407BFF"></path><path d="M319.41,178.84s.46,11.73,8.28,16.74l-13.29,35h-3.29l.53-13.07s-3.72-26.08-.34-35.76Z" style="fill:#fff;opacity:0.6000000000000001;isolation:isolate"></path><path d="M327.69,195a1,1,0,1,1-1-1A1,1,0,0,1,327.69,195Z" style="fill:#263238"></path><path d="M305.43,192.16a.81.81,0,0,1-.82.92h-9.14a1.06,1.06,0,0,1-1-.92l-2-18a.91.91,0,0,1,.83-1h9.14a1.18,1.18,0,0,1,1,1Z" style="fill:#263238"></path><path d="M302.38,174l2.06,18.22a.69.69,0,0,1-.71.86H296c-.52,0-1.48-.29-1.54-.8L292.38,174c-.06-.51.83-.92,1.35-.92h7.75A.94.94,0,0,1,302.38,174Z" style="fill:#fff;opacity:0.5"></path><path d="M292.38,203.65l3.05-9s-2.28-4.22-2.07-6.3,5.74-3.56,6-3.07,2.15,6.53,1.47,8.11a8.59,8.59,0,0,1-2.07,2.77l-2,8.47Z" style="fill:#e4897b"></path><path d="M352.49,196.88c-1.15,5-2.37,9.89-2.87,12.56-2.87-8-.24-16-.24-16Z" style="opacity:0.2;isolation:isolate"></path><path d="M353.64,179.55c3.76,3.7,8.09,26,10.48,33.77S374,232.7,374,232.7l-7.25,2.77S356.4,218.66,355,215.69s-4.82-12.42-4.82-12.42-1.85-8.74,0-15.67S353.64,179.55,353.64,179.55Z" style="fill:#407BFF"></path><path d="M353.64,179.55c3.76,3.7,8.09,26,10.48,33.77S374,232.7,374,232.7l-7.25,2.77S356.4,218.66,355,215.69s-4.82-12.42-4.82-12.42-1.85-8.74,0-15.67S353.64,179.55,353.64,179.55Z" style="fill:#fff;opacity:0.6000000000000001;isolation:isolate"></path></g></svg>