<svg xmlns="http://www.w3.org/2000/svg" viewBox="0 0 500 500"><g id="freepik--background-simple--inject-323"><path d="M138.78,99.31c16-6.59,34.1-6.75,48.09,5.85,14.81,13.34,15.62,35.29,16.3,53.84.77,21.17,3.32,45.49,20.77,57.49,11.61,8,27.13,8.06,40.67,4.19s25.76-11.23,38.39-17.45c20.31-10,43-17.3,65.38-14,30.29,4.45,67,41.48,37.05,69.53-7.56,7.08-17,11.76-25.38,17.85-16.69,12.14-28.79,29.76-37.2,48.62-7.66,17.18-12.67,35.89-24,50.88-20.21,26.65-60.34,35.76-90.08,20.46-24.21-12.46-39.54-37.95-46.3-64.32s-6.15-54-6-81.2c.09-12.08-.77-26-10.4-33.29-14.75-11.17-36.74,2.21-54.19-4-16.22-5.72-21.86-26-21.38-41.53.68-22.16,10.89-44.79,27.32-59.66A73.26,73.26,0,0,1,138.78,99.31Z" style="fill:#407BFF"></path><path d="M138.78,99.31c16-6.59,34.1-6.75,48.09,5.85,14.81,13.34,15.62,35.29,16.3,53.84.77,21.17,3.32,45.49,20.77,57.49,11.61,8,27.13,8.06,40.67,4.19s25.76-11.23,38.39-17.45c20.31-10,43-17.3,65.38-14,30.29,4.45,67,41.48,37.05,69.53-7.56,7.08-17,11.76-25.38,17.85-16.69,12.14-28.79,29.76-37.2,48.62-7.66,17.18-12.67,35.89-24,50.88-20.21,26.65-60.34,35.76-90.08,20.46-24.21-12.46-39.54-37.95-46.3-64.32s-6.15-54-6-81.2c.09-12.08-.77-26-10.4-33.29-14.75-11.17-36.74,2.21-54.19-4-16.22-5.72-21.86-26-21.38-41.53.68-22.16,10.89-44.79,27.32-59.66A73.26,73.26,0,0,1,138.78,99.31Z" style="fill:#fff;opacity:0.9;isolation:isolate"></path></g><g id="freepik--Shadow--inject-323"><ellipse id="freepik--path--inject-323" cx="250" cy="416.24" rx="193.89" ry="11.32" style="fill:#f5f5f5"></ellipse></g><g id="freepik--Plant--inject-323"><path d="M409.48,380.19s-7.68-15,1.1-29.86S421.9,332,416.3,329s-8.16,11.86-8.16,11.86-4.72-10.24-.82-21,6.34-28.2,1-30.07-1,21.79-5.64,29.86c0,0-3.87-9-4.51-17.6s.36-22.37-3.84-25.9-6.9-1.08-2.77,17.93a179,179,0,0,1,4.1,34.47s-9.12-24.94-15.24-25.67-6.11,7.35-.87,14.35,15.34,19.56,17,26c0,0-10-18.77-19-13s7.84,17.09,15.35,21.18,12.71,29.78,12.71,29.78Z" style="fill:#407BFF"></path><path d="M409.48,380.19s-7.68-15,1.1-29.86S421.9,332,416.3,329s-8.16,11.86-8.16,11.86-4.72-10.24-.82-21,6.34-28.2,1-30.07-1,21.79-5.64,29.86c0,0-3.87-9-4.51-17.6s.36-22.37-3.84-25.9-6.9-1.08-2.77,17.93a179,179,0,0,1,4.1,34.47s-9.12-24.94-15.24-25.67-6.11,7.35-.87,14.35,15.34,19.56,17,26c0,0-10-18.77-19-13s7.84,17.09,15.35,21.18,12.71,29.78,12.71,29.78Z" style="fill:#fff;opacity:0.6000000000000001;isolation:isolate"></path><path d="M403.41,386.36s7.49-15.14-1.49-29.85-11.57-18.16-6-21.27S404.23,347,404.23,347s4.58-10.31.54-21-6.71-28.1-1.42-30.05,1.31,21.78,6,29.78c0,0,3.76-9,4.28-17.65s-.66-22.37,3.5-25.95,6.87-1.18,3,17.89a179.54,179.54,0,0,0-3.64,34.51s8.79-25.06,14.9-25.86,6.21,7.26,1.06,14.34-15.08,19.75-16.65,26.23c0,0,9.76-18.9,18.84-13.27s-7.61,17.2-15.06,21.39-12.32,29.94-12.32,29.94Z" style="fill:#407BFF"></path><path d="M403.41,386.36s7.49-15.14-1.49-29.85-11.57-18.16-6-21.27S404.23,347,404.23,347s4.58-10.31.54-21-6.71-28.1-1.42-30.05,1.31,21.78,6,29.78c0,0,3.76-9,4.28-17.65s-.66-22.37,3.5-25.95,6.87-1.18,3,17.89a179.54,179.54,0,0,0-3.64,34.51s8.79-25.06,14.9-25.86,6.21,7.26,1.06,14.34-15.08,19.75-16.65,26.23c0,0,9.76-18.9,18.84-13.27s-7.61,17.2-15.06,21.39-12.32,29.94-12.32,29.94Z" style="fill:#fff;opacity:0.7000000000000001;isolation:isolate"></path><polygon points="437.93 375.57 376.11 375.57 381.11 415.25 432.93 415.25 437.93 375.57" style="fill:#407BFF"></polygon></g><g id="freepik--Sofa--inject-323"><rect x="69.45" y="393.49" width="187.5" height="21.75" style="fill:#407BFF"></rect><rect x="69.45" y="393.49" width="187.5" height="21.75" style="fill:#fff;opacity:0.4;isolation:isolate"></rect><rect x="147.81" y="393.49" width="109.13" height="21.75" style="fill:#fff;opacity:0.4;isolation:isolate"></rect><rect x="156.5" y="393.49" width="187.5" height="21.75" style="fill:#407BFF"></rect><rect x="156.5" y="393.49" width="187.5" height="21.75" style="fill:#fff;opacity:0.4;isolation:isolate"></rect><rect x="234.87" y="393.49" width="109.13" height="21.75" style="fill:#fff;opacity:0.4;isolation:isolate"></rect><rect x="62" y="348" width="209" height="51" rx="8.64" style="fill:#407BFF"></rect><rect x="142" y="348" width="129" height="51" rx="8.64" style="fill:#fff;opacity:0.6000000000000001;isolation:isolate"></rect><rect x="62" y="348" width="209" height="51" rx="8.64" style="fill:#fff;opacity:0.6000000000000001;isolation:isolate"></rect><rect x="146" y="348" width="209" height="51" rx="8.64" style="fill:#407BFF"></rect><rect x="226" y="348" width="129" height="51" rx="8.64" style="fill:#fff;opacity:0.6000000000000001;isolation:isolate"></rect><rect x="146" y="348" width="209" height="51" rx="8.64" style="fill:#fff;opacity:0.6000000000000001;isolation:isolate"></rect><path d="M189.65,349.18h-123L47.92,252.4A17.15,17.15,0,0,1,64.75,232h88.06a17.15,17.15,0,0,1,16.83,13.89Z" style="fill:#407BFF"></path><path d="M101.59,349.18H66.66L47.92,252.4A17.15,17.15,0,0,1,64.75,232h0a17.16,17.16,0,0,1,16.84,13.89Z" style="fill:#407BFF"></path><g style="opacity:0.6000000000000001;isolation:isolate"><path d="M189.65,349.18h-123L47.92,252.4A17.15,17.15,0,0,1,64.75,232h88.06a17.15,17.15,0,0,1,16.83,13.89Z" style="fill:#fff"></path><path d="M101.59,349.18H66.66L47.92,252.4A17.15,17.15,0,0,1,64.75,232h0a17.16,17.16,0,0,1,16.84,13.89Z" style="fill:#fff"></path></g><path d="M189.65,349H101.59l-20-103.21A17.07,17.07,0,0,0,64.75,232h88.06a17.07,17.07,0,0,1,16.83,13.8Z" style="fill:#fff;opacity:0.6000000000000001;isolation:isolate"></path></g><g id="freepik--Character-1--inject-323"><path d="M153.86,248.37c8.14,1.8,7.26,28.48,13.56,35.63,4.55,5.17,22.08,6.5,25.75,9.83s0,9.83,0,9.83-30.24-.68-37.71-4.09S153.86,248.37,153.86,248.37Z" style="fill:#407BFF"></path><path d="M153.86,248.37c8.14,1.8,7.26,28.48,13.56,35.63,4.55,5.17,22.08,6.5,25.75,9.83s0,9.83,0,9.83-30.24-.68-37.71-4.09S153.86,248.37,153.86,248.37Z" style="opacity:0.1;isolation:isolate"></path><path d="M210.43,324.45c-.1.17-.21.24-.33.22-3.48-.63-12.82,4.48-24.18,10.38l-3.19,1.64-1.09.55c-5.73,2.93-11.82,5.89-17.84,8.31-7.09,2.87-14.08,5-20.23,5.46-.84.07-1.65.1-2.45.1-27.63,0-18.63-45.59-18.63-45.59l33-2.53,3.89,6.71,2.11,3.63,4.76-1.28c2.39-.64,5.95-1.47,10-2.34l1-.21c1.37-.29,2.8-.58,4.26-.87,10.77-2.18,23.13-4.29,27.71-4.32C212.48,304.29,211.91,322.28,210.43,324.45Z" style="fill:#e4897b"></path><path d="M176.93,308l6.4,31.72s-22,17.91-41,10.92-13-39.26-13-39.26l25-7.66,6.84,8.16Z" style="fill:#407BFF"></path><path d="M183.33,339.67a7.78,7.78,0,0,0-1.06.69A89.64,89.64,0,0,1,168.85,348h0c-7.37,3-16.59,5.59-25.27,2.89-.42-.13-.83-.21-1.24-.36-19-7-13-39.23-13-39.23l25-7.64,5,6,1.79,2.14L176,308.18l.93-.23.31,1.55,2.8,13.88,2.69,13.31Z" style="fill:#fff;opacity:0.6000000000000001;isolation:isolate"></path><polygon points="175.83 307.33 182.5 341.67 186.5 338.51 181.17 306.67 175.83 307.33" style="fill:#407BFF"></polygon><polygon points="186.5 338.51 182.5 341.67 182.27 340.48 181.64 337.24 178.93 323.28 176.29 309.71 176 308.18 175.83 307.33 181.17 306.67 181.5 308.63 184 323.57 185.92 335.05 186.5 338.51" style="fill:#fff;opacity:0.4;isolation:isolate"></polygon><path d="M210.43,324.45c-.1.17-.21.24-.33.22-3.48-.63-12.82,4.48-24.18,10.38l.58,3.46-4,3.16-.23-1.31A89.64,89.64,0,0,1,168.85,348h0l-5-2.57-7.3-3.82,3-27.28,4.33,6s10.1,2.45,15.1,2.93l1.11.11c1.37.11,2.71.19,4,.2.88,0,1.71,0,2.5-.07C195.1,322.9,204.4,322.58,210.43,324.45Z" style="opacity:0.2;isolation:isolate"></path><path d="M279.86,342.86l-.31,6.61-.77,0c-1,.06-2.82.15-5.33.27-14.17.65-49.3,1.89-64.28-1.11L140.33,350l15.13-26.5,94.63,14.73,29.13,4.53Z" style="fill:#e4897b"></path><path d="M291.23,335c-.12,2.58-.22,4.91-.32,7.06-.14,2.94-.25,5.56-.37,8.06-.2,4.35-3.77,1.46-11.49.93-.19,0-.26-.63-.27-1.53,0-1.93.28-5.19.44-6.75,0-.55.09-.89.09-.89a35.21,35.21,0,0,0,2.68-2.78,22.71,22.71,0,0,0,4.83-8C288.36,325.67,291.5,328.88,291.23,335Z" style="fill:#263238"></path><path d="M174.25,325.5l-7.75,27.07-15.24-1.46s-39.45,15.06-29-44.4L153.5,301l8.63,20.75Z" style="fill:#407BFF"></path><path d="M174.25,325.5l-7.75,27.07-15.24-1.46s-39.45,15.06-29-44.4L153.5,301l8.63,20.75Z" style="fill:#fff;opacity:0.6000000000000001;isolation:isolate"></path><polygon points="172.58 324.02 163.83 353 169 353 176.67 325.5 172.58 324.02" style="fill:#407BFF"></polygon><polygon points="172.58 324.02 163.83 353 169 353 176.67 325.5 172.58 324.02" style="fill:#fff;opacity:0.4;isolation:isolate"></polygon><path d="M290.91,342.05c-.14,2.94-.25,5.56-.37,8.06-.2,4.35-3.77,1.46-11.49.93-.19,0-.26-.63-.27-1.53-1,.06-2.82.15-5.33.27-7.3-4.11-17.52-8.89-23.36-11.55l29.13,4.53c0-.55.09-.89.09-.89a35.21,35.21,0,0,0,2.68-2.78Z" style="opacity:0.2;isolation:isolate"></path><path d="M209.21,304.31c-1.2,0-.38,20.13.89,20.36,5.37,1,78.64,22.59,78.64,22.59l2.14-6.41S221.22,304.25,209.21,304.31Z" style="fill:#e4897b"></path><path d="M287.87,348.5c-.7-.25,2.75-8.76,2.75-8.76s7.22-3.54,10.17-8.33,5.1-.84,3.17,5-3.41,10.24-4.78,14.37S295.15,351.11,287.87,348.5Z" style="fill:#263238"></path><path d="M158.5,307.67l2.67,4.16S132.5,346,125.67,348c0,0-3.86-3.24-3.76-10.95S158.5,307.67,158.5,307.67Z" style="fill:#407BFF"></path><path d="M158.5,307.67l2.67,4.16S132.5,346,125.67,348c0,0-3.86-3.24-3.76-10.95S158.5,307.67,158.5,307.67Z" style="opacity:0.1;isolation:isolate"></path><path d="M148.91,210.75a11.48,11.48,0,0,1,4.84,9.8c-.25,6.58-1.61,16.77,0,20.48s-4.16,4.74-4.16,4.74a5,5,0,0,0,0-3.11s0,1.72-2.3,2.34-20.67,1.08-24.8-2.34,4.5-31,9.25-32.66S148.91,210.75,148.91,210.75Z" style="fill:#263238"></path><path d="M153.26,224.11c0,4-.13,12.58,1.74,15.92s-.87,4.74-.87,4.74" style="fill:none;stroke:#263238;stroke-linecap:round;stroke-linejoin:round;stroke-width:0.5px"></path><path d="M155.45,297.85l5.22,11.82-37.92,35c-8.58-3.75-1.88-64.15-9.14-86-.35-1-.71-2.15-1.1-3.28a2.88,2.88,0,0,1,1.93-3.68,100.24,100.24,0,0,1,10.8-2.43,105.51,105.51,0,0,1,14.82-1.56c6.43,0,13.8.67,13.8.67s1,.25,1.71,7.06C156.18,261.82,156.77,274.6,155.45,297.85Z" style="fill:#407BFF"></path><path d="M126.76,250.47s2.45,3.48,10.58,4.52c0,0,4-2.65,2.32-5.87,0,0-1.76-.55-2.14-3.35a13.58,13.58,0,0,1,.75-5.83c.09-.3.2-.62.31-.94l-10.28-6.43S131.92,245.6,126.76,250.47Z" style="fill:#e4897b"></path><path d="M130.61,236.3s.55,7.35,6.91,9.47a13.58,13.58,0,0,1,.75-5.83C134.52,238,130.61,236.3,130.61,236.3Z" style="opacity:0.2;isolation:isolate"></path><path d="M122.75,251.39s.93-5.9,3.29-6.22c0,0,5.41,4.37,13.25.6,0,0,1.44-.21,1.47,2.51s3.36,2.2,1,7S128.69,261.52,122.75,251.39Z" style="fill:#407BFF"></path><path d="M122.75,251.39s.93-5.9,3.29-6.22c0,0,5.41,4.37,13.25.6,0,0,1.44-.21,1.47,2.51s3.36,2.2,1,7S128.69,261.52,122.75,251.39Z" style="opacity:0.1;isolation:isolate"></path><path d="M141.12,212.22c8.4,1.43,10.34,6.39,9.48,15.16-1.08,11-4.79,18.23-14.9,14.12C122,235.93,127.17,209.84,141.12,212.22Z" style="fill:#e4897b"></path><path d="M145.25,226a18.07,18.07,0,0,0,1.85,3.9,2.35,2.35,0,0,1-2.38.57Z" style="fill:#de5753"></path><path d="M140.22,224.41c-.1.7-.56,1.2-1,1.14s-.75-.69-.65-1.38.56-1.2,1-1.13S140.32,223.72,140.22,224.41Z" style="fill:#263238"></path><path d="M139.37,223l1.6-.37S140,223.83,139.37,223Z" style="fill:#263238"></path><path d="M148.86,225.53c-.1.7-.56,1.2-1,1.14s-.76-.69-.66-1.38.56-1.2,1-1.13S149,224.84,148.86,225.53Z" style="fill:#263238"></path><path d="M148,224.16l1.59-.37S148.67,225,148,224.16Z" style="fill:#263238"></path><path d="M141.13,218.6a4.43,4.43,0,0,0-3.86.65" style="fill:none;stroke:#263238;stroke-linecap:round;stroke-linejoin:round;stroke-width:0.7246800000000001px"></path><path d="M147.3,219.29a4,4,0,0,1,3.23,1.26" style="fill:none;stroke:#263238;stroke-linecap:round;stroke-linejoin:round;stroke-width:0.7246800000000001px"></path><path d="M129.52,224.81s5.11-6.23,5.42-11.66c0,0,17.82-4,15.75,13.08,0,0,4.19-14.73-10.2-17.53S122.56,227,129,234.61C129,234.61,126.35,228.72,129.52,224.81Z" style="fill:#263238"></path><path d="M130.59,226.82a3.74,3.74,0,0,0-3.39-4c-2.65-.16-4.81,5,1.45,7.37C129.55,230.48,130.23,229.66,130.59,226.82Z" style="fill:#e4897b"></path><path d="M148.91,215.63s4-4.63.69-8.5-17.29-4.63-22-.5-4.21,6.37-4.21,6.37a29.84,29.84,0,0,0-2.63,14.88c.88,7.87-2.16,12.75-.14,15.25s4,2.64,4,2.64a10.36,10.36,0,0,1,0-5.64c.92-2.5,0-.75,0-.75s1.07,6.5,2.18,7.25a11.66,11.66,0,0,0,3.85,1,20.78,20.78,0,0,1-1.61-9.79c.63-4.88,3.25-9.88,2.63-15.63a15.43,15.43,0,0,1,2.81-10.19S144.45,210.88,148.91,215.63Z" style="fill:#263238"></path><path d="M148.91,214.13a4.88,4.88,0,0,0,3.22-5.14c-.38-4-7.82-6.42-12-5.74" style="fill:none;stroke:#263238;stroke-linecap:round;stroke-linejoin:round;stroke-width:0.5px"></path><path d="M124.58,212.5s-5.16,7.36-4.68,15.77-2.4,11-1.52,13.61" style="fill:none;stroke:#263238;stroke-linecap:round;stroke-linejoin:round;stroke-width:0.5px"></path><path d="M138.27,231.5s.31,2.33,5,2.51" style="fill:none;stroke:#263238;stroke-linecap:round;stroke-linejoin:round;stroke-width:0.5px"></path><path d="M167.42,296.18s5.75,1.15,6.83,1.49a57.74,57.74,0,0,1,9.22,6c1.36,1.34-7.47,3.51-9.22,3s-4.91-4.25-4.91-4.25l-6.34-1Z" style="fill:#e4897b"></path><path d="M114.44,251.69s-4.77,1.64-5.77,15.64,1.19,37,11,43.34,45.36-7,45.36-7,1.55-7.26,0-8.84c-6.42-6.55-28.69-.58-36.47-4.21S124.56,258.72,114.44,251.69Z" style="fill:#407BFF"></path><path d="M114.44,251.69s-4.77,1.64-5.77,15.64,1.19,37,11,43.34,45.36-7,45.36-7,1.55-7.26,0-8.84c-6.42-6.55-28.69-.58-36.47-4.21S124.56,258.72,114.44,251.69Z" style="opacity:0.1;isolation:isolate"></path><polygon points="165 294.83 163.83 304.09 168.83 304.31 171 296.18 165 294.83" style="fill:#407BFF"></polygon><polygon points="165 294.83 163.83 304.09 168.83 304.31 171 296.18 165 294.83" style="opacity:0.2;isolation:isolate"></polygon><path d="M225,305v2.94c0,.75-.89,1.06-1.63,1.06H164.66c-.75,0-1.66-.31-1.66-1.06V305Z" style="fill:#263238"></path><path d="M225,305v2.94c0,.75-.89,1.06-1.63,1.06H164.66c-.75,0-1.66-.31-1.66-1.06V305Z" style="fill:#fff;opacity:0.4;isolation:isolate"></path><path d="M225,305v2.94c0,.75-.89,1.06-1.63,1.06H184.65c-.76,0-1.65-.31-1.65-1.06V305Z" style="opacity:0.2;isolation:isolate"></path><path d="M234.82,274.5l-7,31.7a2.37,2.37,0,0,1-2.27,1.8H187.39a1.54,1.54,0,0,1-1.44-2l7-31.46A2.19,2.19,0,0,1,195.2,273h38.18C234.41,273,235.05,273.46,234.82,274.5Z" style="fill:#263238"></path><path d="M234.82,274.5l-7,31.7a2.37,2.37,0,0,1-2.27,1.8H188.69a1.55,1.55,0,0,1-1.45-2l7-31.46A2.19,2.19,0,0,1,196.5,273h36.88C234.41,273,235.05,273.46,234.82,274.5Z" style="fill:#fff;opacity:0.4;isolation:isolate"></path><path d="M216,290.61h0c0,2.71-2.91,4.92-5,4.92s-3.4-2.21-2.79-4.92,2.73-4.83,4.82-4.91c-.61,2.71.69,4.91,2.81,4.91Z" style="opacity:0.2;isolation:isolate"></path></g><g id="freepik--Bubble-1--inject-323"><path d="M158.33,153H117.77a5.64,5.64,0,0,0-5.77,5.44v22a5.74,5.74,0,0,0,5.77,5.56h17.4l3.09,7.84,3.09-7.84h17a5.65,5.65,0,0,0,5.67-5.56v-22A5.55,5.55,0,0,0,158.33,153Z" style="fill:#407BFF"></path><path d="M158.33,153H117.77a5.64,5.64,0,0,0-5.77,5.44v22a5.74,5.74,0,0,0,5.77,5.56h17.4l3.09,7.84,3.09-7.84h17a5.65,5.65,0,0,0,5.67-5.56v-22A5.55,5.55,0,0,0,158.33,153Z" style="fill:#fff;opacity:0.6000000000000001;isolation:isolate"></path><polygon points="119 175.5 130.63 167 134.25 168 139.13 165 146.91 167.5 156 159.5 156 177 119 177 119 175.5" style="opacity:0.2;isolation:isolate"></polygon><polygon points="119 162 119 177 156 177 156 163 144.16 172 139.13 167.79 127.83 173 120 176 120 162 119 162" style="fill:#fff"></polygon></g></svg>